<svg width="2146" height="2146" viewBox="0 0 2146 2146" fill="none" xmlns="http://www.w3.org/2000/svg">
<rect width="2146" height="2146" rx="1073" fill="#333533"/>
<path d="M1071.91 1193.23C1051.39 1191.36 911.024 1076.17 799.568 1076.17C660.996 1076.17 581.785 1145.66 463.334 1211.41C416.947 1237.16 401.776 1265.98 395.714 1305.15C388.292 1353.11 409.064 1413.54 447.944 1436.66C965.49 1744.33 999.725 1793.34 1074.24 1794.34C1148.76 1795.35 1248.56 1702.36 1702.41 1430.13C1746.59 1403.63 1754.64 1356.45 1753.24 1319.14C1751.61 1275.72 1729.92 1238.97 1694.48 1218.87C1548.05 1135.87 1460.84 1070.58 1369.91 1073.84C1244.93 1078.33 1092.43 1195.09 1071.91 1193.23Z" fill="url(#paint0_linear_2833_26)"/>
<mask id="mask0_2833_26" style="mask-type:alpha" maskUnits="userSpaceOnUse" x="394" y="1073" width="1360" height="722">
<path d="M1071.91 1193.23C1051.39 1191.36 911.024 1076.17 799.568 1076.17C660.996 1076.17 581.785 1145.66 463.334 1211.41C416.947 1237.16 401.776 1265.98 395.714 1305.15C388.292 1353.11 409.064 1413.54 447.944 1436.66C965.49 1744.33 999.725 1793.34 1074.24 1794.34C1148.76 1795.35 1248.56 1702.36 1702.41 1430.13C1746.59 1403.63 1754.64 1356.45 1753.24 1319.14C1751.61 1275.72 1729.92 1238.97 1694.48 1218.87C1548.05 1135.87 1460.84 1070.58 1369.91 1073.84C1244.93 1078.33 1092.43 1195.09 1071.91 1193.23Z" fill="url(#paint1_linear_2833_26)"/>
</mask>
<g mask="url(#mask0_2833_26)">
<g filter="url(#filter0_dddd_2833_26)">
<path d="M1071.91 891.969C1051.39 890.104 911.024 774.917 799.568 774.917C660.996 774.917 581.785 844.402 463.334 910.157C416.947 935.907 401.776 964.719 395.714 1003.89C388.292 1051.85 409.064 1112.29 447.944 1135.4C965.49 1443.07 999.725 1492.09 1074.24 1493.09C1148.76 1494.09 1248.56 1401.1 1702.41 1128.87C1746.59 1102.37 1754.64 1055.19 1753.24 1017.88C1751.61 974.461 1729.92 937.708 1694.48 917.617C1548.05 834.608 1460.84 769.32 1369.91 772.584C1244.93 777.07 1092.43 893.835 1071.91 891.969Z" fill="url(#paint2_linear_2833_26)"/>
</g>
</g>
<path d="M1071.91 891.969C1051.39 890.104 911.024 774.917 799.568 774.917C660.996 774.917 581.785 844.402 463.334 910.157C416.947 935.907 401.776 964.719 395.714 1003.89C388.292 1051.85 409.064 1112.29 447.944 1135.4C965.49 1443.07 999.725 1492.09 1074.24 1493.09C1148.76 1494.09 1248.56 1401.1 1702.41 1128.87C1746.59 1102.37 1754.64 1055.19 1753.24 1017.88C1751.61 974.461 1729.92 937.708 1694.48 917.617C1548.05 834.608 1460.84 769.32 1369.91 772.584C1244.93 777.07 1092.43 893.835 1071.91 891.969Z" fill="url(#paint3_linear_2833_26)"/>
<mask id="mask1_2833_26" style="mask-type:alpha" maskUnits="userSpaceOnUse" x="394" y="772" width="1360" height="722">
<path d="M1071.91 891.969C1051.39 890.104 911.024 774.917 799.568 774.917C660.996 774.917 581.785 844.402 463.334 910.157C416.947 935.907 401.776 964.719 395.714 1003.89C388.292 1051.85 409.064 1112.29 447.944 1135.4C965.49 1443.07 999.725 1492.09 1074.24 1493.09C1148.76 1494.09 1248.56 1401.1 1702.41 1128.87C1746.59 1102.37 1754.64 1055.19 1753.24 1017.88C1751.61 974.461 1729.92 937.708 1694.48 917.617C1548.05 834.608 1460.84 769.32 1369.91 772.584C1244.93 777.07 1092.43 893.835 1071.91 891.969Z" fill="url(#paint4_linear_2833_26)"/>
</mask>
<g mask="url(#mask1_2833_26)">
<g filter="url(#filter1_dddd_2833_26)">
<path d="M1071.92 581.384C1051.4 579.519 911.03 464.332 799.574 464.332C661.002 464.332 581.791 533.817 463.34 599.572C416.953 625.322 401.782 654.134 395.72 693.307C388.298 741.265 409.07 801.702 447.95 824.816C965.496 1132.48 999.731 1181.5 1074.25 1182.5C1148.77 1183.5 1248.57 1090.51 1702.42 818.286C1746.6 791.784 1754.65 744.604 1753.25 707.296C1751.62 663.876 1729.93 627.124 1694.49 607.032C1548.06 524.023 1460.85 458.735 1369.91 461.999C1244.94 466.485 1092.44 583.25 1071.92 581.384Z" fill="url(#paint5_linear_2833_26)"/>
</g>
</g>
<path d="M1071.92 581.384C1051.4 579.519 911.03 464.332 799.574 464.332C661.002 464.332 581.791 533.817 463.34 599.572C416.953 625.322 401.782 654.134 395.72 693.307C388.298 741.265 409.07 801.702 447.95 824.816C965.496 1132.48 999.731 1181.5 1074.25 1182.5C1148.77 1183.5 1248.57 1090.51 1702.42 818.286C1746.6 791.784 1754.65 744.604 1753.25 707.296C1751.62 663.876 1729.93 627.124 1694.49 607.032C1548.06 524.023 1460.85 458.735 1369.91 461.999C1244.94 466.485 1092.44 583.25 1071.92 581.384Z" fill="url(#paint6_linear_2833_26)"/>
<defs>
<filter id="filter0_dddd_2833_26" x="138.225" y="724.467" width="1871.16" height="1665.63" filterUnits="userSpaceOnUse" color-interpolation-filters="sRGB">
<feFlood flood-opacity="0" result="BackgroundImageFix"/>
<feColorMatrix in="SourceAlpha" type="matrix" values="0 0 0 0 0 0 0 0 0 0 0 0 0 0 0 0 0 0 127 0" result="hardAlpha"/>
<feOffset dy="40"/>
<feGaussianBlur stdDeviation="44"/>
<feColorMatrix type="matrix" values="0 0 0 0 0 0 0 0 0 0 0 0 0 0 0 0 0 0 0.1 0"/>
<feBlend mode="normal" in2="BackgroundImageFix" result="effect1_dropShadow_2833_26"/>
<feColorMatrix in="SourceAlpha" type="matrix" values="0 0 0 0 0 0 0 0 0 0 0 0 0 0 0 0 0 0 127 0" result="hardAlpha"/>
<feOffset dy="160"/>
<feGaussianBlur stdDeviation="80"/>
<feColorMatrix type="matrix" values="0 0 0 0 0 0 0 0 0 0 0 0 0 0 0 0 0 0 0.09 0"/>
<feBlend mode="normal" in2="effect1_dropShadow_2833_26" result="effect2_dropShadow_2833_26"/>
<feColorMatrix in="SourceAlpha" type="matrix" values="0 0 0 0 0 0 0 0 0 0 0 0 0 0 0 0 0 0 127 0" result="hardAlpha"/>
<feOffset dy="361"/>
<feGaussianBlur stdDeviation="108"/>
<feColorMatrix type="matrix" values="0 0 0 0 0 0 0 0 0 0 0 0 0 0 0 0 0 0 0.05 0"/>
<feBlend mode="normal" in2="effect2_dropShadow_2833_26" result="effect3_dropShadow_2833_26"/>
<feColorMatrix in="SourceAlpha" type="matrix" values="0 0 0 0 0 0 0 0 0 0 0 0 0 0 0 0 0 0 127 0" result="hardAlpha"/>
<feOffset dy="641"/>
<feGaussianBlur stdDeviation="128"/>
<feColorMatrix type="matrix" values="0 0 0 0 0 0 0 0 0 0 0 0 0 0 0 0 0 0 0.01 0"/>
<feBlend mode="normal" in2="effect3_dropShadow_2833_26" result="effect4_dropShadow_2833_26"/>
<feBlend mode="normal" in="SourceGraphic" in2="effect4_dropShadow_2833_26" result="shape"/>
</filter>
<filter id="filter1_dddd_2833_26" x="138.23" y="413.882" width="1871.16" height="1665.63" filterUnits="userSpaceOnUse" color-interpolation-filters="sRGB">
<feFlood flood-opacity="0" result="BackgroundImageFix"/>
<feColorMatrix in="SourceAlpha" type="matrix" values="0 0 0 0 0 0 0 0 0 0 0 0 0 0 0 0 0 0 127 0" result="hardAlpha"/>
<feOffset dy="40"/>
<feGaussianBlur stdDeviation="44"/>
<feColorMatrix type="matrix" values="0 0 0 0 0 0 0 0 0 0 0 0 0 0 0 0 0 0 0.1 0"/>
<feBlend mode="normal" in2="BackgroundImageFix" result="effect1_dropShadow_2833_26"/>
<feColorMatrix in="SourceAlpha" type="matrix" values="0 0 0 0 0 0 0 0 0 0 0 0 0 0 0 0 0 0 127 0" result="hardAlpha"/>
<feOffset dy="160"/>
<feGaussianBlur stdDeviation="80"/>
<feColorMatrix type="matrix" values="0 0 0 0 0 0 0 0 0 0 0 0 0 0 0 0 0 0 0.09 0"/>
<feBlend mode="normal" in2="effect1_dropShadow_2833_26" result="effect2_dropShadow_2833_26"/>
<feColorMatrix in="SourceAlpha" type="matrix" values="0 0 0 0 0 0 0 0 0 0 0 0 0 0 0 0 0 0 127 0" result="hardAlpha"/>
<feOffset dy="361"/>
<feGaussianBlur stdDeviation="108"/>
<feColorMatrix type="matrix" values="0 0 0 0 0 0 0 0 0 0 0 0 0 0 0 0 0 0 0.05 0"/>
<feBlend mode="normal" in2="effect2_dropShadow_2833_26" result="effect3_dropShadow_2833_26"/>
<feColorMatrix in="SourceAlpha" type="matrix" values="0 0 0 0 0 0 0 0 0 0 0 0 0 0 0 0 0 0 127 0" result="hardAlpha"/>
<feOffset dy="641"/>
<feGaussianBlur stdDeviation="128"/>
<feColorMatrix type="matrix" values="0 0 0 0 0 0 0 0 0 0 0 0 0 0 0 0 0 0 0.01 0"/>
<feBlend mode="normal" in2="effect3_dropShadow_2833_26" result="effect4_dropShadow_2833_26"/>
<feBlend mode="normal" in="SourceGraphic" in2="effect4_dropShadow_2833_26" result="shape"/>
</filter>
<linearGradient id="paint0_linear_2833_26" x1="1073.81" y1="1073.72" x2="1073.81" y2="1794.34" gradientUnits="userSpaceOnUse">
<stop stop-color="#D00075"/>
<stop offset="1" stop-color="#980276"/>
</linearGradient>
<linearGradient id="paint1_linear_2833_26" x1="1073.81" y1="1073.72" x2="1073.81" y2="1794.34" gradientUnits="userSpaceOnUse">
<stop stop-color="#FF006C"/>
<stop offset="1" stop-color="#D72483"/>
</linearGradient>
<linearGradient id="paint2_linear_2833_26" x1="1073.81" y1="772.467" x2="1073.81" y2="1493.09" gradientUnits="userSpaceOnUse">
<stop stop-color="#FF006C"/>
<stop offset="1" stop-color="#D72483"/>
</linearGradient>
<linearGradient id="paint3_linear_2833_26" x1="1073.81" y1="772.467" x2="1073.81" y2="1493.09" gradientUnits="userSpaceOnUse">
<stop stop-color="#FD0469"/>
<stop offset="1" stop-color="#CE0074"/>
</linearGradient>
<linearGradient id="paint4_linear_2833_26" x1="1073.81" y1="772.467" x2="1073.81" y2="1493.09" gradientUnits="userSpaceOnUse">
<stop stop-color="#F80064"/>
<stop offset="1" stop-color="#C70173"/>
</linearGradient>
<linearGradient id="paint5_linear_2833_26" x1="1073.81" y1="461.882" x2="1073.81" y2="1182.5" gradientUnits="userSpaceOnUse">
<stop stop-color="#FF006C"/>
<stop offset="1" stop-color="#D72483"/>
</linearGradient>
<linearGradient id="paint6_linear_2833_26" x1="1073.81" y1="461.882" x2="1073.81" y2="1182.5" gradientUnits="userSpaceOnUse">
<stop stop-color="#FF0A62"/>
<stop offset="1" stop-color="#DD1155"/>
</linearGradient>
</defs>
</svg>
